<?xml version="1.0" encoding="UTF-8" standalone="no"?>
<svg
   xmlns:dc="http://purl.org/dc/elements/1.1/"
   xmlns:cc="http://creativecommons.org/ns#"
   xmlns:rdf="http://www.w3.org/1999/02/22-rdf-syntax-ns#"
   xmlns:svg="http://www.w3.org/2000/svg"
   xmlns="http://www.w3.org/2000/svg"
   height="48"
   width="48"
   xml:space="preserve"
   viewBox="0 0 48 48"
   y="0px"
   x="0px"
   id="GRS"
   version="1.1"><metadata
   id="metadata99"><rdf:RDF><cc:Work
       rdf:about=""><dc:format>image/svg+xml</dc:format><dc:type
         rdf:resource="http://purl.org/dc/dcmitype/StillImage" /><dc:title></dc:title></cc:Work></rdf:RDF></metadata><defs
   id="defs97" />
<style
   id="style2"
   type="text/css">
	.st0{opacity:0.6;fill:#FFFFFF;enable-background:new    ;}
	.st1{fill:#FFFFFF;}
</style>
<rect
   y="0.016782761"
   x="0.016782761"
   height="47.966434"
   width="47.966434"
   id="rect906"
   style="opacity:1;fill:#000000;fill-opacity:1;stroke:#000000;stroke-width:0.03356716;stroke-linejoin:round;stroke-miterlimit:4;stroke-dasharray:none;stroke-opacity:1" /><g
   transform="matrix(0.04119873,0,0,0.04119873,2.9062502,2.9062502)"
   id="g92">
	<g
   id="g88">
		<path
   style="opacity:0.6;fill:#ffffff;enable-background:new"
   id="path4"
   d="m 437.8,636.8 c -0.7,-0.9 -1.5,-1.8 -2.3,-2.8 -27,-34.7 -40.7,-83.6 -40.7,-146.5 0,-48.6 9.9,-84.7 29.9,-108.2 19.9,-23.6 44.6,-35.3 74,-35.3 31.8,0 58,13.2 78.2,39.5 27.4,35.8 41.3,85.5 41.3,148.9 v 0 c 0,-63.4 -13.7,-113 -41.3,-148.9 -20.3,-26.3 -46.4,-39.5 -78.2,-39.5 -29.5,0 -54.2,11.8 -74,35.3 -19.9,23.6 -29.9,59.6 -29.9,108.2 0,63 13.5,111.8 40.7,146.5 0.8,1 1.5,1.9 2.3,2.8 z"
   class="st0" />
		<path
   style="opacity:0.6;fill:#ffffff;enable-background:new"
   id="path6"
   d="m 346.1,936.8 c 2.2,-3.9 4.5,-7.8 7.2,-11.9 -2.7,4.1 -5,8.1 -7.2,11.9 0,0.1 0,0.1 0,0 0,0.1 0,0.1 0,0 z"
   class="st0" />
		<path
   style="opacity:0.6;fill:#ffffff;enable-background:new"
   id="path8"
   d="m 439.9,886 c -19,-1.7 -36,-3.6 -51,-5.7 -0.4,0.4 -0.8,0.8 -1.1,1.2 0.4,-0.4 0.8,-0.8 1.1,-1.2 15,2.1 32.1,4 51,5.7 z"
   class="st0" />
		<path
   style="opacity:0.6;fill:#ffffff;enable-background:new"
   id="path10"
   d="m 761.7,105 c -0.8,-0.8 -1.6,-1.5 -2.5,-2.3 0.8,0.7 1.6,1.4 2.5,2.3 z"
   class="st0" />
		<path
   style="opacity:0.6;fill:#ffffff;enable-background:new"
   id="path12"
   d="m 757.8,101.5 c -0.4,-0.4 -0.9,-0.8 -1.3,-1.1 0.3,0.3 0.9,0.7 1.3,1.1 z"
   class="st0" />
		<path
   style="opacity:0.6;fill:#ffffff;enable-background:new"
   id="path14"
   d="m 317.5,610.9 c 17.9,29.4 43.7,52.3 77.2,68.7 v 0 c -33.4,-16.4 -59.1,-39.3 -77.2,-68.7 -17.9,-29.4 -26.9,-62 -26.9,-97.5 v 0 c 0,35.7 9,68.1 26.9,97.5 z"
   class="st0" />
		<path
   style="opacity:0.6;fill:#ffffff;enable-background:new"
   id="path16"
   d="m 355.9,875.3 v 0 C 335.1,862.9 320.5,851.7 311.9,842 303.3,832.2 299,821.1 299,808.7 v 0 c 0,12.4 4.3,23.6 12.9,33.3 8.6,9.9 23.3,20.9 44,33.3 z"
   class="st0" />
		<path
   style="opacity:0.6;fill:#ffffff;enable-background:new"
   id="path18"
   d="m 805.9,335.8 -27.1,78.5 z"
   class="st0" />
		<path
   style="opacity:0.6;fill:#ffffff;enable-background:new"
   id="path20"
   d="m 440.3,886.1 c 0.8,0.1 1.7,0.1 2.6,0.2 -0.8,-0.1 -1.7,-0.2 -2.6,-0.2 z"
   class="st0" />
		<path
   style="opacity:0.6;fill:#ffffff;enable-background:new"
   id="path22"
   d="m 319.1,913.8 c 0,-0.1 0.1,-0.1 0.1,-0.2 0,0.1 -0.1,0.1 -0.1,0.2 z"
   class="st0" />
		<path
   style="opacity:0.6;fill:#ffffff;enable-background:new"
   id="path24"
   d="m 720,909.6 c 0.7,0.3 1.3,0.6 2,0.9 -0.7,-0.3 -1.4,-0.6 -2,-0.9 -20.8,-8.7 -62,-13.9 -123.5,-15.5 -56.2,-1.5 -104.3,-3.9 -144.3,-7.2 39.9,3.3 88.1,5.6 144.3,7.2 61.4,1.7 102.7,6.8 123.5,15.5 z"
   class="st0" />
		<path
   style="opacity:0.6;fill:#ffffff;enable-background:new"
   id="path26"
   d="m 714.8,82.2 c -0.3,0 -0.6,-0.1 -0.9,-0.1 0.2,0 0.5,0.1 0.9,0.1 z"
   class="st0" />
		<path
   style="opacity:0.6;fill:#ffffff;enable-background:new"
   id="path28"
   d="m 710.2,81.7 c -0.3,0 -0.7,-0.1 -1,-0.1 0.3,0 0.6,0.1 1,0.1 z"
   class="st0" />
		<path
   style="opacity:0.6;fill:#ffffff;enable-background:new"
   id="path30"
   d="m 719.3,83 c -0.2,0 -0.5,-0.1 -0.7,-0.1 0.1,0 0.4,0 0.7,0.1 z"
   class="st0" />
		<path
   style="opacity:0.6;fill:#ffffff;enable-background:new"
   id="path32"
   d="m 754.6,98.8 c -0.3,-0.2 -0.6,-0.4 -0.9,-0.7 0.3,0.3 0.6,0.5 0.9,0.7 z"
   class="st0" />
		<path
   style="opacity:0.6;fill:#ffffff;enable-background:new"
   id="path34"
   d="m 620.2,168 c 5.7,-17.1 14.6,-30 26.6,-38.8 12,-8.8 25.5,-13.2 40.7,-13.2 16.6,0 30.8,6.2 42.8,18.8 11.9,12.5 17.9,28.6 17.9,48 v 0 c 0,-19.5 -5.9,-35.4 -17.9,-48 -11.9,-12.5 -26.2,-18.8 -42.8,-18.8 -15.1,0 -28.7,4.4 -40.7,13.2 C 634.9,138 626,151 620.2,168 h -8.4 v 0 z"
   class="st0" />
		<path
   style="opacity:0.6;fill:#ffffff;enable-background:new"
   id="path36"
   d="m 705.3,81.3 c -0.3,0 -0.6,0 -1,-0.1 0.4,0.1 0.7,0.1 1,0.1 z"
   class="st0" />
		<path
   style="opacity:0.6;fill:#ffffff;enable-background:new"
   id="path38"
   d="m 652,360 v 0 c 9.7,-9 32.9,-33.5 69.6,-73.6 25.1,-27.3 43.2,-53.2 54.4,-77.8 7.3,-15.6 10.9,-31.1 10.9,-46.7 0,-8.2 -1.1,-16 -3.5,-23.2 2.4,7.4 3.5,15.2 3.5,23.2 0,15.6 -3.6,31.1 -10.9,46.7 -11.2,24.5 -29.3,50.4 -54.4,77.8 C 685,326.6 661.7,351 652,360 Z"
   class="st0" />
		<path
   style="opacity:0.6;fill:#ffffff;enable-background:new"
   id="path40"
   d="M 732,86.5 Z"
   class="st0" />
		<path
   style="opacity:0.6;fill:#ffffff;enable-background:new"
   id="path42"
   d="m 723.6,84 c -0.2,0 -0.3,-0.1 -0.5,-0.1 0.2,0 0.3,0.1 0.5,0.1 z"
   class="st0" />
		<path
   style="opacity:0.6;fill:#ffffff;enable-background:new"
   id="path44"
   d="m 727.9,85.1 c -0.1,0 -0.2,-0.1 -0.3,-0.1 0.1,0.1 0.2,0.1 0.3,0.1 z"
   class="st0" />
		<path
   style="opacity:0.6;fill:#ffffff;enable-background:new"
   id="path46"
   d="m 777.9,869.5 c 0.1,0.1 0.2,0.3 0.2,0.4 -0.1,-0.2 -0.1,-0.3 -0.2,-0.4 z"
   class="st0" />
		<path
   style="opacity:0.6;fill:#ffffff;enable-background:new"
   id="path48"
   d="m 773.7,863.1 c 0.1,0 0.1,0 0,0 0.1,0 0.1,0 0,0 z"
   class="st0" />
		<path
   style="opacity:0.6;fill:#ffffff;enable-background:new"
   id="path50"
   d="m 771.2,859.6 c 0.2,0.2 0.3,0.5 0.5,0.7 -0.1,-0.1 -0.3,-0.4 -0.5,-0.7 z"
   class="st0" />
		<path
   style="opacity:0.6;fill:#ffffff;enable-background:new"
   id="path52"
   d="m 728,913.7 c -0.5,-0.3 -1,-0.6 -1.5,-0.8 0.5,0.2 0.9,0.5 1.5,0.8 z"
   class="st0" />
		<path
   style="opacity:0.6;fill:#ffffff;enable-background:new"
   id="path54"
   d="m 775.9,866.2 c 0.1,0.2 0.2,0.3 0.3,0.5 -0.1,-0.2 -0.2,-0.3 -0.3,-0.5 z"
   class="st0" />
		<path
   style="opacity:0.6;fill:#ffffff;enable-background:new"
   id="path56"
   d="m 726,912.6 c -0.4,-0.2 -0.9,-0.5 -1.3,-0.7 0.4,0.2 0.8,0.4 1.3,0.7 z"
   class="st0" />
		<path
   style="opacity:0.6;fill:#ffffff;enable-background:new"
   id="path58"
   d="m 768.9,856.8 c 0.1,0.2 0.2,0.3 0.4,0.5 -0.1,-0.2 -0.3,-0.3 -0.4,-0.5 z"
   class="st0" />
		<path
   style="opacity:0.6;fill:#ffffff;enable-background:new"
   id="path60"
   d="M 512,0 C 229.3,0 0,229.2 0,512 c 0,197.1 111.4,368.2 274.7,453.7 5.6,-7.7 12.7,-16.8 20,-25.8 0.1,-0.1 0.2,-0.2 0.3,-0.4 C 139.3,860.4 32.6,698.7 32.6,512 32.6,247.2 247.2,32.6 512,32.6 c 81,0 157.3,20.1 224.2,55.6 5.4,2.3 10.5,5.1 15.5,8.5 143.3,82.8 239.7,237.7 239.7,415.3 0,160.7 -79.1,302.8 -200.3,389.8 2.2,9.1 3.2,18.6 3.2,28.7 0,3 -0.1,5.9 -0.3,8.9 C 932.5,847.8 1024,690.6 1024,512 1024,229.2 794.7,0 512,0 Z"
   class="st0" />
		<path
   style="opacity:0.6;fill:#ffffff;enable-background:new"
   id="path62"
   d="m 781.9,876.5 c 0,-0.1 -0.1,-0.2 -0.1,-0.3 0,0.1 0,0.2 0.1,0.3 z"
   class="st0" />
		<path
   style="opacity:0.6;fill:#ffffff;enable-background:new"
   id="path64"
   d="M 331.4,900.9 Z"
   class="st0" />
		<path
   style="opacity:0.6;fill:#ffffff;enable-background:new"
   id="path66"
   d="m 763.5,850.5 c 0.2,0.2 0.5,0.5 0.7,0.7 -0.3,-0.2 -0.5,-0.4 -0.7,-0.7 z"
   class="st0" />
		<path
   style="opacity:0.6;fill:#ffffff;enable-background:new"
   id="path68"
   d="m 766.1,853.4 c 0.2,0.2 0.4,0.4 0.5,0.6 -0.1,-0.2 -0.3,-0.4 -0.5,-0.6 z"
   class="st0" />
		<path
   style="opacity:0.6;fill:#ffffff;enable-background:new"
   id="path70"
   d="m 326,906.4 c 0.1,-0.1 0.3,-0.3 0.4,-0.4 -0.1,0.1 -0.3,0.3 -0.4,0.4 z"
   class="st0" />
		<path
   style="opacity:0.6;fill:#ffffff;enable-background:new"
   id="path72"
   d="m 728.3,913.9 c 7.6,4.6 13.2,10.2 16.9,17.1 -69,38.5 -148.5,60.4 -233.2,60.4 -62,0 -121.2,-11.8 -175.6,-33.2 0.8,-2.5 1.7,-4.9 2.8,-7.4 -5.1,12.1 -7.6,23.6 -7.6,34.2 0,1.8 0.3,4.5 0.5,6.5 56,21 116.6,32.5 179.9,32.5 85.7,0 166.5,-21.1 237.5,-58.3 0.7,-4 1.1,-8 1.1,-12.1 -0.1,-17.6 -7.5,-30.8 -22.3,-39.7 z"
   class="st0" />
		<path
   style="opacity:0.6;fill:#ffffff;enable-background:new"
   id="path74"
   d="m 323.7,909 c 0,-0.1 0.1,-0.1 0.1,-0.2 0,0.1 -0.1,0.1 -0.1,0.2 z"
   class="st0" />
		<path
   style="opacity:0.6;fill:#ffffff;enable-background:new"
   id="path76"
   d="m 328.6,903.8 c 0.1,-0.1 0.3,-0.3 0.4,-0.4 -0.1,0.2 -0.3,0.3 -0.4,0.4 z"
   class="st0" />
		<path
   style="opacity:0.6;fill:#ffffff;enable-background:new"
   id="path78"
   d="m 342.2,944.2 c 0.2,-0.5 0.5,-0.9 0.7,-1.4 -0.2,0.4 -0.4,0.9 -0.7,1.4 z"
   class="st0" />
		<path
   style="opacity:0.6;fill:#ffffff;enable-background:new"
   id="path80"
   d="m 343.9,941 c 0.2,-0.4 0.4,-0.8 0.6,-1.1 -0.2,0.3 -0.4,0.6 -0.6,1.1 z"
   class="st0" />
		<path
   style="opacity:0.6;fill:#ffffff;enable-background:new"
   id="path82"
   d="m 339.5,950.3 c 0.3,-0.6 0.5,-1.2 0.8,-1.8 -0.2,0.5 -0.5,1.2 -0.8,1.8 z"
   class="st0" />
		<path
   style="opacity:0.6;fill:#ffffff;enable-background:new"
   id="path84"
   d="m 340.8,947.3 c 0.2,-0.5 0.5,-1.1 0.7,-1.6 -0.2,0.5 -0.4,1 -0.7,1.6 z"
   class="st0" />
		<path
   style="opacity:0.6;fill:#ffffff;enable-background:new"
   id="path86"
   d="m 724,911.6 c -0.5,-0.2 -0.9,-0.4 -1.4,-0.7 0.4,0.2 1,0.4 1.4,0.7 z"
   class="st0" />
	</g>
	<path
   style="fill:#ffffff"
   id="path90"
   d="m 805.9,335.8 h -8.4 c -3.9,6.8 -8.5,12.1 -13.8,15.8 -5.3,3.7 -11.3,6.1 -17.8,7.4 -6.6,1.2 -18,1.8 -34.3,1.8 h -79 l -0.5,-0.6 c 9.6,-9 32.9,-33.5 69.6,-73.6 25.1,-27.3 43.2,-53.2 54.4,-77.8 7.3,-15.6 10.9,-31.1 10.9,-46.7 0,-21.8 -8.4,-40.7 -25,-56.7 -16.7,-16.1 -37.5,-24.1 -62.5,-24.1 -23.4,0 -42.9,7.5 -58.6,22.4 -15.7,14.9 -25.3,36.5 -29.1,64.4 h 8.4 c 5.7,-17.1 14.6,-30 26.6,-38.8 12,-8.8 25.5,-13.2 40.7,-13.2 16.6,0 30.8,6.2 42.8,18.8 11.9,12.5 17.9,28.6 17.9,48 0,25.6 -10.9,53.8 -32.6,84.6 -16,22.7 -40.6,50.3 -73.6,82.5 -37.6,-23.8 -81.6,-35.7 -132.3,-35.7 -64,0 -116.4,19.6 -157.5,58.8 -41,39.2 -61.4,86 -61.4,140.4 0,35.6 9,68.1 26.9,97.5 17.9,29.4 43.7,52.3 77.2,68.7 -41.2,34.4 -67.4,61 -78.7,79.9 -11.4,18.8 -17.1,35.2 -17.1,49.3 0,12.4 4.3,23.6 12.9,33.3 8.6,9.8 23.2,20.9 44,33.3 -38.1,39.5 -58.5,61 -61.3,64.6 -7.5,9.2 -14.3,18 -20,25.8 18.3,9.6 37.8,18.3 57.4,25.7 -0.3,-1.9 -0.5,-4.4 -0.5,-6.5 0,-14.6 4.8,-30.8 14.4,-48.2 9.6,-17.5 24,-36.4 42.8,-56.6 48.3,6.9 117.6,11.6 207.5,13.9 61.5,1.5 102.7,6.8 123.5,15.5 20.4,8.7 30.6,23.3 30.6,44 0,4.2 -0.3,7.9 -1.1,12.1 15.4,-8 30.2,-16.9 44.5,-26.3 0.2,-3.2 0.3,-5.7 0.3,-8.9 0,-32.7 -11.2,-60.2 -33.3,-82.5 -22.2,-22.3 -51.9,-36 -89.1,-41.3 -24.4,-4 -77.8,-7.1 -160.2,-9.3 -44.9,-1.3 -72.8,-2.9 -84,-4.6 -19.3,-2.8 -32.2,-7.3 -38.7,-13.6 -6.6,-6.3 -9.9,-12.9 -9.9,-19.6 0,-7.9 3.1,-17.5 9.3,-28.8 6.2,-11.3 18.1,-24.5 35.7,-39.5 28.4,8.1 56.1,12.2 83.3,12.2 65.8,0 118.4,-18.2 157.5,-54.7 39.1,-36.5 58.7,-80.4 58.7,-131.7 0,-40.9 -9.3,-75.2 -28,-102.7 h 83.1 z M 589,639.5 c -19.6,22.7 -44.4,34.1 -74.6,34.1 -31.8,0 -58.2,-13.1 -78.8,-39.5 -27,-34.7 -40.7,-83.6 -40.7,-146.5 0,-48.6 9.9,-84.7 29.9,-108.2 19.9,-23.6 44.6,-35.3 74,-35.3 31.8,0 58,13.2 78.2,39.5 27.4,35.8 41.3,85.5 41.3,148.9 0,48.5 -9.7,84.3 -29.3,107 z"
   class="st1" />
</g>
</svg>