<?xml version="1.0" encoding="UTF-8" standalone="no"?>
<svg
   xmlns:dc="http://purl.org/dc/elements/1.1/"
   xmlns:cc="http://creativecommons.org/ns#"
   xmlns:rdf="http://www.w3.org/1999/02/22-rdf-syntax-ns#"
   xmlns:svg="http://www.w3.org/2000/svg"
   xmlns="http://www.w3.org/2000/svg"
   height="108"
   width="108"
   xml:space="preserve"
   viewBox="0 0 108 108"
   y="0px"
   x="0px"
   id="GRS"
   version="1.1"><metadata
   id="metadata99"><rdf:RDF><cc:Work
       rdf:about=""><dc:format>image/svg+xml</dc:format><dc:type
         rdf:resource="http://purl.org/dc/dcmitype/StillImage" /><dc:title></dc:title></cc:Work></rdf:RDF></metadata><defs
   id="defs97">
	
	
</defs>
<style
   id="style2"
   type="text/css">
	.st0{opacity:0.6;fill:#FFFFFF;enable-background:new    ;}
	.st1{fill:#FFFFFF;}
</style>
<g
   transform="matrix(0.05371094,0,0,0.05371094,26.499999,26.499999)"
   id="g88"
   style="opacity:1;fill:#808080;fill-opacity:1;fill-rule:nonzero;stroke:none;stroke-opacity:1">
		<path
   class="st0"
   d="m 437.8,636.8 c -0.7,-0.9 -1.5,-1.8 -2.3,-2.8 -27,-34.7 -40.7,-83.6 -40.7,-146.5 0,-48.6 9.9,-84.7 29.9,-108.2 19.9,-23.6 44.6,-35.3 74,-35.3 31.8,0 58,13.2 78.2,39.5 27.4,35.8 41.3,85.5 41.3,148.9 v 0 c 0,-63.4 -13.7,-113 -41.3,-148.9 -20.3,-26.3 -46.4,-39.5 -78.2,-39.5 -29.5,0 -54.2,11.8 -74,35.3 -19.9,23.6 -29.9,59.6 -29.9,108.2 0,63 13.5,111.8 40.7,146.5 0.8,1 1.5,1.9 2.3,2.8 z"
   id="path4"
   style="opacity:0.6;fill:#808080;fill-opacity:1;fill-rule:nonzero;stroke:none;stroke-opacity:1;enable-background:new" />
		<path
   class="st0"
   d="m 346.1,936.8 c 2.2,-3.9 4.5,-7.8 7.2,-11.9 -2.7,4.1 -5,8.1 -7.2,11.9 0,0.1 0,0.1 0,0 0,0.1 0,0.1 0,0 z"
   id="path6"
   style="opacity:0.6;fill:#808080;fill-opacity:1;fill-rule:nonzero;stroke:none;stroke-opacity:1;enable-background:new" />
		<path
   class="st0"
   d="m 439.9,886 c -19,-1.7 -36,-3.6 -51,-5.7 -0.4,0.4 -0.8,0.8 -1.1,1.2 0.4,-0.4 0.8,-0.8 1.1,-1.2 15,2.1 32.1,4 51,5.7 z"
   id="path8"
   style="opacity:0.6;fill:#808080;fill-opacity:1;fill-rule:nonzero;stroke:none;stroke-opacity:1;enable-background:new" />
		<path
   class="st0"
   d="m 761.7,105 c -0.8,-0.8 -1.6,-1.5 -2.5,-2.3 0.8,0.7 1.6,1.4 2.5,2.3 z"
   id="path10"
   style="opacity:0.6;fill:#808080;fill-opacity:1;fill-rule:nonzero;stroke:none;stroke-opacity:1;enable-background:new" />
		<path
   class="st0"
   d="m 757.8,101.5 c -0.4,-0.4 -0.9,-0.8 -1.3,-1.1 0.3,0.3 0.9,0.7 1.3,1.1 z"
   id="path12"
   style="opacity:0.6;fill:#808080;fill-opacity:1;fill-rule:nonzero;stroke:none;stroke-opacity:1;enable-background:new" />
		<path
   class="st0"
   d="m 317.5,610.9 c 17.9,29.4 43.7,52.3 77.2,68.7 v 0 c -33.4,-16.4 -59.1,-39.3 -77.2,-68.7 -17.9,-29.4 -26.9,-62 -26.9,-97.5 v 0 c 0,35.7 9,68.1 26.9,97.5 z"
   id="path14"
   style="opacity:0.6;fill:#808080;fill-opacity:1;fill-rule:nonzero;stroke:none;stroke-opacity:1;enable-background:new" />
		<path
   class="st0"
   d="m 355.9,875.3 v 0 C 335.1,862.9 320.5,851.7 311.9,842 303.3,832.2 299,821.1 299,808.7 v 0 c 0,12.4 4.3,23.6 12.9,33.3 8.6,9.9 23.3,20.9 44,33.3 z"
   id="path16"
   style="opacity:0.6;fill:#808080;fill-opacity:1;fill-rule:nonzero;stroke:none;stroke-opacity:1;enable-background:new" />
		<path
   class="st0"
   d="m 805.9,335.8 -27.1,78.5 z"
   id="path18"
   style="opacity:0.6;fill:#808080;fill-opacity:1;fill-rule:nonzero;stroke:none;stroke-opacity:1;enable-background:new" />
		<path
   class="st0"
   d="m 440.3,886.1 c 0.8,0.1 1.7,0.1 2.6,0.2 -0.8,-0.1 -1.7,-0.2 -2.6,-0.2 z"
   id="path20"
   style="opacity:0.6;fill:#808080;fill-opacity:1;fill-rule:nonzero;stroke:none;stroke-opacity:1;enable-background:new" />
		<path
   class="st0"
   d="m 319.1,913.8 c 0,-0.1 0.1,-0.1 0.1,-0.2 0,0.1 -0.1,0.1 -0.1,0.2 z"
   id="path22"
   style="opacity:0.6;fill:#808080;fill-opacity:1;fill-rule:nonzero;stroke:none;stroke-opacity:1;enable-background:new" />
		<path
   class="st0"
   d="m 720,909.6 c 0.7,0.3 1.3,0.6 2,0.9 -0.7,-0.3 -1.4,-0.6 -2,-0.9 -20.8,-8.7 -62,-13.9 -123.5,-15.5 -56.2,-1.5 -104.3,-3.9 -144.3,-7.2 39.9,3.3 88.1,5.6 144.3,7.2 61.4,1.7 102.7,6.8 123.5,15.5 z"
   id="path24"
   style="opacity:0.6;fill:#808080;fill-opacity:1;fill-rule:nonzero;stroke:none;stroke-opacity:1;enable-background:new" />
		<path
   class="st0"
   d="m 714.8,82.2 c -0.3,0 -0.6,-0.1 -0.9,-0.1 0.2,0 0.5,0.1 0.9,0.1 z"
   id="path26"
   style="opacity:0.6;fill:#808080;fill-opacity:1;fill-rule:nonzero;stroke:none;stroke-opacity:1;enable-background:new" />
		<path
   class="st0"
   d="m 710.2,81.7 c -0.3,0 -0.7,-0.1 -1,-0.1 0.3,0 0.6,0.1 1,0.1 z"
   id="path28"
   style="opacity:0.6;fill:#808080;fill-opacity:1;fill-rule:nonzero;stroke:none;stroke-opacity:1;enable-background:new" />
		<path
   class="st0"
   d="m 719.3,83 c -0.2,0 -0.5,-0.1 -0.7,-0.1 0.1,0 0.4,0 0.7,0.1 z"
   id="path30"
   style="opacity:0.6;fill:#808080;fill-opacity:1;fill-rule:nonzero;stroke:none;stroke-opacity:1;enable-background:new" />
		<path
   class="st0"
   d="m 754.6,98.8 c -0.3,-0.2 -0.6,-0.4 -0.9,-0.7 0.3,0.3 0.6,0.5 0.9,0.7 z"
   id="path32"
   style="opacity:0.6;fill:#808080;fill-opacity:1;fill-rule:nonzero;stroke:none;stroke-opacity:1;enable-background:new" />
		<path
   class="st0"
   d="m 620.2,168 c 5.7,-17.1 14.6,-30 26.6,-38.8 12,-8.8 25.5,-13.2 40.7,-13.2 16.6,0 30.8,6.2 42.8,18.8 11.9,12.5 17.9,28.6 17.9,48 v 0 c 0,-19.5 -5.9,-35.4 -17.9,-48 -11.9,-12.5 -26.2,-18.8 -42.8,-18.8 -15.1,0 -28.7,4.4 -40.7,13.2 C 634.9,138 626,151 620.2,168 h -8.4 v 0 z"
   id="path34"
   style="opacity:0.6;fill:#808080;fill-opacity:1;fill-rule:nonzero;stroke:none;stroke-opacity:1;enable-background:new" />
		<path
   class="st0"
   d="m 705.3,81.3 c -0.3,0 -0.6,0 -1,-0.1 0.4,0.1 0.7,0.1 1,0.1 z"
   id="path36"
   style="opacity:0.6;fill:#808080;fill-opacity:1;fill-rule:nonzero;stroke:none;stroke-opacity:1;enable-background:new" />
		<path
   class="st0"
   d="m 652,360 v 0 c 9.7,-9 32.9,-33.5 69.6,-73.6 25.1,-27.3 43.2,-53.2 54.4,-77.8 7.3,-15.6 10.9,-31.1 10.9,-46.7 0,-8.2 -1.1,-16 -3.5,-23.2 2.4,7.4 3.5,15.2 3.5,23.2 0,15.6 -3.6,31.1 -10.9,46.7 -11.2,24.5 -29.3,50.4 -54.4,77.8 C 685,326.6 661.7,351 652,360 Z"
   id="path38"
   style="opacity:0.6;fill:#808080;fill-opacity:1;fill-rule:nonzero;stroke:none;stroke-opacity:1;enable-background:new" />
		<path
   class="st0"
   d="M 732,86.5 Z"
   id="path40"
   style="opacity:1;fill:#808080;fill-opacity:1;fill-rule:nonzero;stroke:none;stroke-opacity:1;enable-background:new" />
		<path
   class="st0"
   d="m 723.6,84 c -0.2,0 -0.3,-0.1 -0.5,-0.1 0.2,0 0.3,0.1 0.5,0.1 z"
   id="path42"
   style="opacity:1;fill:#808080;fill-opacity:1;fill-rule:nonzero;stroke:none;stroke-opacity:1;enable-background:new" />
		<path
   class="st0"
   d="m 727.9,85.1 c -0.1,0 -0.2,-0.1 -0.3,-0.1 0.1,0.1 0.2,0.1 0.3,0.1 z"
   id="path44"
   style="opacity:1;fill:#808080;fill-opacity:1;fill-rule:nonzero;stroke:none;stroke-opacity:1;enable-background:new" />
		<path
   class="st0"
   d="m 777.9,869.5 c 0.1,0.1 0.2,0.3 0.2,0.4 -0.1,-0.2 -0.1,-0.3 -0.2,-0.4 z"
   id="path46"
   style="opacity:1;fill:#808080;fill-opacity:1;fill-rule:nonzero;stroke:none;stroke-opacity:1;enable-background:new" />
		<path
   class="st0"
   d="m 773.7,863.1 c 0.1,0 0.1,0 0,0 0.1,0 0.1,0 0,0 z"
   id="path48"
   style="opacity:1;fill:#808080;fill-opacity:1;fill-rule:nonzero;stroke:none;stroke-opacity:1;enable-background:new" />
		<path
   class="st0"
   d="m 771.2,859.6 c 0.2,0.2 0.3,0.5 0.5,0.7 -0.1,-0.1 -0.3,-0.4 -0.5,-0.7 z"
   id="path50"
   style="opacity:1;fill:#808080;fill-opacity:1;fill-rule:nonzero;stroke:none;stroke-opacity:1;enable-background:new" />
		<path
   class="st0"
   d="m 728,913.7 c -0.5,-0.3 -1,-0.6 -1.5,-0.8 0.5,0.2 0.9,0.5 1.5,0.8 z"
   id="path52"
   style="opacity:1;fill:#808080;fill-opacity:1;fill-rule:nonzero;stroke:none;stroke-opacity:1;enable-background:new" />
		<path
   class="st0"
   d="m 775.9,866.2 c 0.1,0.2 0.2,0.3 0.3,0.5 -0.1,-0.2 -0.2,-0.3 -0.3,-0.5 z"
   id="path54"
   style="opacity:1;fill:#808080;fill-opacity:1;fill-rule:nonzero;stroke:none;stroke-opacity:1;enable-background:new" />
		<path
   class="st0"
   d="m 726,912.6 c -0.4,-0.2 -0.9,-0.5 -1.3,-0.7 0.4,0.2 0.8,0.4 1.3,0.7 z"
   id="path56"
   style="opacity:1;fill:#808080;fill-opacity:1;fill-rule:nonzero;stroke:none;stroke-opacity:1;enable-background:new" />
		<path
   class="st0"
   d="m 768.9,856.8 c 0.1,0.2 0.2,0.3 0.4,0.5 -0.1,-0.2 -0.3,-0.3 -0.4,-0.5 z"
   id="path58"
   style="opacity:1;fill:#808080;fill-opacity:1;fill-rule:nonzero;stroke:none;stroke-opacity:1;enable-background:new" />
		<path
   class="st0"
   d="M 512,0 C 229.3,0 0,229.2 0,512 c 0,197.1 111.4,368.2 274.7,453.7 5.6,-7.7 12.7,-16.8 20,-25.8 0.1,-0.1 0.2,-0.2 0.3,-0.4 C 139.3,860.4 32.6,698.7 32.6,512 32.6,247.2 247.2,32.6 512,32.6 c 81,0 157.3,20.1 224.2,55.6 5.4,2.3 10.5,5.1 15.5,8.5 143.3,82.8 239.7,237.7 239.7,415.3 0,160.7 -79.1,302.8 -200.3,389.8 2.2,9.1 3.2,18.6 3.2,28.7 0,3 -0.1,5.9 -0.3,8.9 C 932.5,847.8 1024,690.6 1024,512 1024,229.2 794.7,0 512,0 Z"
   id="path60"
   style="opacity:1;fill:#808080;fill-opacity:1;fill-rule:nonzero;stroke:none;stroke-opacity:1;enable-background:new" />
		<path
   class="st0"
   d="m 781.9,876.5 c 0,-0.1 -0.1,-0.2 -0.1,-0.3 0,0.1 0,0.2 0.1,0.3 z"
   id="path62"
   style="opacity:1;fill:#808080;fill-opacity:1;fill-rule:nonzero;stroke:none;stroke-opacity:1;enable-background:new" />
		<path
   class="st0"
   d="M 331.4,900.9 Z"
   id="path64"
   style="opacity:1;fill:#808080;fill-opacity:1;fill-rule:nonzero;stroke:none;stroke-opacity:1;enable-background:new" />
		<path
   class="st0"
   d="m 763.5,850.5 c 0.2,0.2 0.5,0.5 0.7,0.7 -0.3,-0.2 -0.5,-0.4 -0.7,-0.7 z"
   id="path66"
   style="opacity:1;fill:#808080;fill-opacity:1;fill-rule:nonzero;stroke:none;stroke-opacity:1;enable-background:new" />
		<path
   class="st0"
   d="m 766.1,853.4 c 0.2,0.2 0.4,0.4 0.5,0.6 -0.1,-0.2 -0.3,-0.4 -0.5,-0.6 z"
   id="path68"
   style="opacity:1;fill:#808080;fill-opacity:1;fill-rule:nonzero;stroke:none;stroke-opacity:1;enable-background:new" />
		<path
   class="st0"
   d="m 326,906.4 c 0.1,-0.1 0.3,-0.3 0.4,-0.4 -0.1,0.1 -0.3,0.3 -0.4,0.4 z"
   id="path70"
   style="opacity:1;fill:#808080;fill-opacity:1;fill-rule:nonzero;stroke:none;stroke-opacity:1;enable-background:new" />
		<path
   class="st0"
   d="m 728.3,913.9 c 7.6,4.6 13.2,10.2 16.9,17.1 -69,38.5 -148.5,60.4 -233.2,60.4 -62,0 -121.2,-11.8 -175.6,-33.2 0.8,-2.5 1.7,-4.9 2.8,-7.4 -5.1,12.1 -7.6,23.6 -7.6,34.2 0,1.8 0.3,4.5 0.5,6.5 56,21 116.6,32.5 179.9,32.5 85.7,0 166.5,-21.1 237.5,-58.3 0.7,-4 1.1,-8 1.1,-12.1 -0.1,-17.6 -7.5,-30.8 -22.3,-39.7 z"
   id="path72"
   style="opacity:1;fill:#808080;fill-opacity:1;fill-rule:nonzero;stroke:none;stroke-opacity:1;enable-background:new" />
		<path
   class="st0"
   d="m 323.7,909 c 0,-0.1 0.1,-0.1 0.1,-0.2 0,0.1 -0.1,0.1 -0.1,0.2 z"
   id="path74"
   style="opacity:1;fill:#808080;fill-opacity:1;fill-rule:nonzero;stroke:none;stroke-opacity:1;enable-background:new" />
		<path
   class="st0"
   d="m 328.6,903.8 c 0.1,-0.1 0.3,-0.3 0.4,-0.4 -0.1,0.2 -0.3,0.3 -0.4,0.4 z"
   id="path76"
   style="opacity:1;fill:#808080;fill-opacity:1;fill-rule:nonzero;stroke:none;stroke-opacity:1;enable-background:new" />
		<path
   class="st0"
   d="m 342.2,944.2 c 0.2,-0.5 0.5,-0.9 0.7,-1.4 -0.2,0.4 -0.4,0.9 -0.7,1.4 z"
   id="path78"
   style="opacity:1;fill:#808080;fill-opacity:1;fill-rule:nonzero;stroke:none;stroke-opacity:1;enable-background:new" />
		<path
   class="st0"
   d="m 343.9,941 c 0.2,-0.4 0.4,-0.8 0.6,-1.1 -0.2,0.3 -0.4,0.6 -0.6,1.1 z"
   id="path80"
   style="opacity:1;fill:#808080;fill-opacity:1;fill-rule:nonzero;stroke:none;stroke-opacity:1;enable-background:new" />
		<path
   class="st0"
   d="m 339.5,950.3 c 0.3,-0.6 0.5,-1.2 0.8,-1.8 -0.2,0.5 -0.5,1.2 -0.8,1.8 z"
   id="path82"
   style="opacity:1;fill:#808080;fill-opacity:1;fill-rule:nonzero;stroke:none;stroke-opacity:1;enable-background:new" />
		<path
   class="st0"
   d="m 340.8,947.3 c 0.2,-0.5 0.5,-1.1 0.7,-1.6 -0.2,0.5 -0.4,1 -0.7,1.6 z"
   id="path84"
   style="opacity:1;fill:#808080;fill-opacity:1;fill-rule:nonzero;stroke:none;stroke-opacity:1;enable-background:new" />
		<path
   class="st0"
   d="m 724,911.6 c -0.5,-0.2 -0.9,-0.4 -1.4,-0.7 0.4,0.2 1,0.4 1.4,0.7 z"
   id="path86"
   style="opacity:1;fill:#808080;fill-opacity:1;fill-rule:nonzero;stroke:none;stroke-opacity:1;enable-background:new" />
	</g><path
   class="st1"
   d="m 68.265628,43.222903 h -0.451172 c -0.209473,0.365235 -0.456543,0.649903 -0.741211,0.848633 -0.284668,0.19873 -0.606933,0.327636 -0.956056,0.397461 -0.354491,0.06445 -0.966795,0.09668 -1.842284,0.09668 h -4.243164 l -0.02686,-0.03223 c 0.515625,-0.483398 1.767089,-1.799317 3.738283,-3.953124 1.348142,-1.46631 2.320311,-2.857422 2.921874,-4.178711 0.392089,-0.837891 0.585448,-1.67041 0.585448,-2.508302 0,-1.170899 -0.451172,-2.186034 -1.342773,-3.045409 -0.896971,-0.864745 -2.014159,-1.294435 -3.356934,-1.294435 -1.256836,0 -2.304199,0.402832 -3.14746,1.203125 -0.843263,0.800294 -1.358888,1.960449 -1.562989,3.458985 h 0.451172 c 0.306152,-0.918457 0.784179,-1.611329 1.428711,-2.083985 0.644531,-0.472655 1.369629,-0.708984 2.186035,-0.708984 0.891602,0 1.654298,0.333008 2.298829,1.009765 0.639158,0.671388 0.961425,1.536134 0.961425,2.578126 0,1.375 -0.585449,2.889648 -1.750977,4.543945 -0.859375,1.219239 -2.180664,2.70166 -3.953125,4.431152 -2.019531,-1.27832 -4.382812,-1.91748 -7.105958,-1.91748 -3.4375,0 -6.251953,1.052734 -8.459473,3.158203 -2.202148,2.105469 -3.297851,4.619141 -3.297851,7.541016 0,1.912109 0.483399,3.657715 1.444824,5.236816 0.961426,1.579102 2.347168,2.809082 4.146485,3.689942 -2.212891,1.847656 -3.620117,3.276367 -4.227051,4.291504 -0.612305,1.009766 -0.918457,1.890625 -0.918457,2.647949 0,0.666016 0.230957,1.267577 0.692871,1.788573 0.461914,0.526369 1.246094,1.122559 2.363281,1.788574 -2.046386,2.121583 -3.142089,3.276368 -3.29248,3.469728 -0.402832,0.49414 -0.768067,0.966796 -1.074219,1.385741 0.982911,0.515625 2.030273,0.982911 3.083008,1.380372 -0.01611,-0.102051 -0.02686,-0.236328 -0.02686,-0.349122 0,-0.784179 0.257813,-1.654296 0.773438,-2.588866 0.515625,-0.939942 1.289062,-1.955079 2.298828,-3.040039 2.594239,0.370605 6.316407,0.623046 11.14502,0.746582 3.303223,0.08057 5.516113,0.365234 6.633301,0.832519 1.095702,0.467286 1.643554,1.251465 1.643554,2.363281 0,0.225588 -0.01611,0.424317 -0.05909,0.649902 0.827149,-0.429686 1.62207,-0.907714 2.390137,-1.412597 0.01074,-0.171876 0.01611,-0.306153 0.01611,-0.478028 0,-1.756348 -0.601562,-3.233397 -1.788573,-4.431152 -1.192383,-1.197753 -2.787598,-1.933593 -4.785645,-2.218261 -1.310546,-0.214844 -4.178711,-0.381348 -8.604492,-0.49951 -2.411621,-0.06982 -3.910156,-0.155763 -4.511719,-0.247072 -1.036621,-0.150391 -1.729491,-0.39209 -2.078613,-0.730469 -0.354493,-0.338379 -0.531738,-0.692871 -0.531738,-1.052734 0,-0.424318 0.166505,-0.939943 0.499512,-1.546875 0.333008,-0.606934 0.972169,-1.315918 1.917479,-2.121583 1.525391,0.435059 3.013185,0.655274 4.474123,0.655274 3.53418,0 6.359375,-0.977538 8.459472,-2.937987 2.100097,-1.96045 3.152833,-4.31836 3.152833,-7.073731 0,-2.196777 -0.499513,-4.039063 -1.503907,-5.516113 h 4.463377 z M 56.615726,59.534916 c -1.052735,1.219237 -2.384765,1.831542 -4.006836,1.831542 -1.708008,0 -3.125977,-0.703613 -4.232422,-2.121581 -1.450196,-1.863769 -2.186035,-4.490235 -2.186035,-7.868653 0,-2.610352 0.531738,-4.549318 1.605957,-5.811524 1.068848,-1.267578 2.395507,-1.895995 3.974609,-1.895995 1.708008,0 3.115234,0.708984 4.200196,2.121582 1.47168,1.922851 2.218261,4.592284 2.218261,7.997558 0,2.60498 -0.520996,4.527833 -1.57373,5.747071 z"
   id="path90"
   style="fill:#ffffff;fill-opacity:1;stroke:none;stroke-width:0.05353333;stroke-miterlimit:4;stroke-dasharray:none;stroke-opacity:1" />
</svg>