<?xml version="1.0" encoding="utf-8"?>
<!-- Generator: Adobe Illustrator 23.0.1, SVG Export Plug-In . SVG Version: 6.00 Build 0)  -->
<svg version="1.1" id="Layer_1" xmlns="http://www.w3.org/2000/svg" xmlns:xlink="http://www.w3.org/1999/xlink" x="0px" y="0px"
	 viewBox="0 0 96 104" style="enable-background:new 0 0 96 104;" xml:space="preserve">
<style type="text/css">
	.st0{fill:#35A5BB;}
	.st1{opacity:0.6;fill:#35A5BB;enable-background:new    ;}
	.st2{fill:#35A5BB;enable-background:new    ;}
</style>
<g>
	<path class="st0" d="M47.4,97.2l-0.8-0.4c-0.4-0.2-9.9-4.5-19.5-12.4C14.2,73.8,7.4,61.5,7.4,49V6h80v43c0,12.5-6.8,24.7-19.7,35.4
		c-9.6,8-19.1,12.2-19.5,12.4L47.4,97.2z M11.4,10v39c0,25.1,30.6,41.1,36,43.8c5.4-2.7,36-18.7,36-43.8V10H11.4z"/>
</g>
<g>
	<g>
		<path class="st1" d="M59.4,23c0,0-0.1-0.1-0.1-0.1C59.3,23,59.4,23,59.4,23z"/>
		<path class="st1" d="M59.2,22.9C59.2,22.8,59.2,22.8,59.2,22.9C59.2,22.8,59.2,22.8,59.2,22.9z"/>
		<path class="st1" d="M38.1,62C38.1,62,38.1,62,38.1,62C38.1,62,38.1,62,38.1,62z"/>
		<path class="st1" d="M57.2,21.9C57.1,21.9,57.1,21.9,57.2,21.9C57.1,21.9,57.1,21.9,57.2,21.9z"/>
		<path class="st1" d="M57.4,22C57.4,22,57.4,22,57.4,22C57.4,22,57.4,22,57.4,22z"/>
		<path class="st1" d="M59.1,22.7C59.1,22.7,59.1,22.7,59.1,22.7C59.1,22.7,59.1,22.7,59.1,22.7z"/>
		<path class="st1" d="M56.7,21.9C56.7,21.9,56.7,21.9,56.7,21.9C56.7,21.9,56.7,21.9,56.7,21.9z"/>
		<path class="st1" d="M58,22.1L58,22.1L58,22.1z"/>
		<path class="st1" d="M57.6,22C57.6,22,57.6,22,57.6,22C57.6,22,57.6,22,57.6,22z"/>
		<path class="st1" d="M57.8,22.1C57.8,22.1,57.8,22.1,57.8,22.1C57.8,22.1,57.8,22.1,57.8,22.1z"/>
		<path class="st1" d="M60.2,59.8C60.2,59.8,60.2,59.9,60.2,59.8C60.2,59.8,60.2,59.8,60.2,59.8z"/>
		<path class="st2" d="M47.4,18c-13.6,0-24.7,11-24.7,24.7c0,9.5,5.4,17.7,13.2,21.8c0.3-0.4,0.6-0.8,1-1.2c0,0,0,0,0,0
			c-7.5-3.8-12.6-11.6-12.6-20.6c0-12.7,10.3-23.1,23.1-23.1c3.9,0,7.6,1,10.8,2.7c0.3,0.1,0.5,0.2,0.7,0.4c6.9,4,11.5,11.4,11.5,20
			c0,7.7-3.8,14.6-9.6,18.8c0.1,0.4,0.2,0.9,0.2,1.4c0,0.1,0,0.3,0,0.4c6.7-4.4,11.1-12,11.1-20.6C72.1,29,61,18,47.4,18z"/>
		<path class="st1" d="M60.4,60.2C60.4,60.2,60.4,60.2,60.4,60.2C60.4,60.2,60.4,60.2,60.4,60.2z"/>
		<path class="st1" d="M38.4,61.6C38.5,61.6,38.5,61.6,38.4,61.6C38.5,61.6,38.5,61.6,38.4,61.6z"/>
		<path class="st1" d="M38.3,61.7C38.3,61.7,38.3,61.7,38.3,61.7C38.3,61.7,38.3,61.7,38.3,61.7z"/>
		<path class="st1" d="M43,65.7C43,65.7,43,65.7,43,65.7C43,65.7,43,65.7,43,65.7z"/>
	</g>
	<path class="st0" d="M61.6,34.1h-0.4c-0.2,0.3-0.4,0.6-0.7,0.8c-0.3,0.2-0.5,0.3-0.9,0.4c-0.3,0.1-0.9,0.1-1.7,0.1h-3.8l0,0
		c0.5-0.4,1.6-1.6,3.4-3.5c1.2-1.3,2.1-2.6,2.6-3.7c0.4-0.7,0.5-1.5,0.5-2.2c0-1.1-0.4-2-1.2-2.7c-0.8-0.8-1.8-1.2-3-1.2
		c-1.1,0-2.1,0.4-2.8,1.1s-1.2,1.8-1.4,3.1h0.4c0.3-0.8,0.7-1.4,1.3-1.9c0.6-0.4,1.2-0.6,2-0.6c0.8,0,1.5,0.3,2.1,0.9
		c0.6,0.6,0.9,1.4,0.9,2.3c0,1.2-0.5,2.6-1.6,4.1c-0.8,1.1-2,2.4-3.5,4c-1.8-1.1-3.9-1.7-6.4-1.7c-3.1,0-5.6,0.9-7.6,2.8
		c-2,1.9-3,4.1-3,6.8c0,1.7,0.4,3.3,1.3,4.7c0.9,1.4,2.1,2.5,3.7,3.3c-2,1.7-3.2,2.9-3.8,3.8c-0.5,0.9-0.8,1.7-0.8,2.4
		c0,0.6,0.2,1.1,0.6,1.6c0.4,0.5,1.1,1,2.1,1.6c-1.8,1.9-2.8,2.9-3,3.1c-0.4,0.4-0.7,0.9-1,1.2c0.9,0.5,1.8,0.9,2.8,1.2
		c0-0.1,0-0.2,0-0.3c0-0.7,0.2-1.5,0.7-2.3c0.5-0.8,1.2-1.8,2.1-2.7c2.3,0.3,5.7,0.6,10,0.7c3,0.1,4.9,0.3,5.9,0.7
		c1,0.4,1.5,1.1,1.5,2.1c0,0.2,0,0.4-0.1,0.6c0.7-0.4,1.5-0.8,2.1-1.3c0-0.2,0-0.3,0-0.4c0-1.6-0.5-2.9-1.6-4
		c-1.1-1.1-2.5-1.7-4.3-2c-1.2-0.2-3.7-0.3-7.7-0.4c-2.2-0.1-3.5-0.1-4-0.2c-0.9-0.1-1.5-0.4-1.9-0.7c-0.3-0.3-0.5-0.6-0.5-0.9
		c0-0.4,0.1-0.8,0.4-1.4c0.3-0.5,0.9-1.2,1.7-1.9c1.4,0.4,2.7,0.6,4,0.6c3.2,0,5.7-0.9,7.6-2.6c1.9-1.8,2.8-3.9,2.8-6.3
		c0-2-0.4-3.6-1.3-4.9h4L61.6,34.1z M51.1,48.8c-0.9,1.1-2.1,1.6-3.6,1.6c-1.5,0-2.8-0.6-3.8-1.9c-1.3-1.7-2-4-2-7.1
		c0-2.3,0.5-4.1,1.4-5.2c1-1.1,2.1-1.7,3.6-1.7c1.5,0,2.8,0.6,3.8,1.9c1.3,1.7,2,4.1,2,7.2C52.5,45.9,52.1,47.7,51.1,48.8z"/>
</g>
</svg>
