<?xml version="1.0" encoding="UTF-8" standalone="no"?>
<svg
   xmlns:dc="http://purl.org/dc/elements/1.1/"
   xmlns:cc="http://creativecommons.org/ns#"
   xmlns:rdf="http://www.w3.org/1999/02/22-rdf-syntax-ns#"
   xmlns:svg="http://www.w3.org/2000/svg"
   xmlns="http://www.w3.org/2000/svg"
   height="108"
   width="108"
   xml:space="preserve"
   viewBox="0 0 108 108"
   y="0px"
   x="0px"
   id="GRS"
   version="1.1"><metadata
   id="metadata19"><rdf:RDF><cc:Work
       rdf:about=""><dc:format>image/svg+xml</dc:format><dc:type
         rdf:resource="http://purl.org/dc/dcmitype/StillImage" /><dc:title></dc:title></cc:Work></rdf:RDF></metadata><defs
   id="defs17" />
<style
   id="style2"
   type="text/css">
	.st0{fill:#FFFFFF;}
</style>
<g
   style="fill:#ffffff;fill-opacity:1"
   transform="matrix(0.05197505,0,0,0.05197505,27.388774,27.388774)"
   id="g6">
	<path
   style="fill:#ffffff;fill-opacity:1"
   id="path4"
   d="M 31,994 V 30 H 993 V 994 Z M 960.6,957.2 V 58.3 H 64 v 898.9 z"
   class="st0" />
</g>
<g
   style="fill:#ffffff;fill-opacity:1"
   transform="matrix(0.05197505,0,0,0.05197505,27.388774,27.386176)"
   id="g12">
	<path
   style="fill:#ffffff;fill-opacity:1"
   id="path8"
   d="M 633.1,355 H 519.9 c -10.8,-26.5 -23.8,-46.7 -39.1,-60.6 -1.8,-1.3 -5.3,-3.4 -10.4,-6.1 -5.2,-2.7 -10,-4.9 -14.5,-6.7 -11.7,-4.5 -22.4,-6.7 -32.3,-6.7 -17.5,0 -33.5,5.2 -47.8,15.5 -35,27.4 -52.5,79.9 -52.5,157.6 0,34.4 2.9,60.1 8.8,77.3 6.8,25.2 15.3,46.3 25.7,63.4 14.4,25.6 36.1,38.4 65,38.4 14,0 26.7,-2.8 38.3,-8.4 11.5,-5.6 22.4,-14.7 32.8,-27.3 13.1,-18.9 21.7,-40.9 25.7,-66 H 401.8 v -94.9 h 227.9 v 284.6 h -74.6 l -8.7,-45.8 c -6.8,8.9 -14,16.5 -21.6,22.8 -7.7,6.3 -18,13 -31.1,20.1 -26.6,8.5 -49.3,12.7 -68.2,12.7 -9,0 -17.7,-0.2 -26,-0.7 -8.3,-0.4 -16.3,-1.3 -24,-2.7 -7.7,-1.4 -14.3,-2.9 -19.9,-4.7 C 350,715 342.4,711.4 333,706 310.5,695.2 289.5,678.2 270.2,654.9 250.9,631.6 235.5,601.1 224.3,563.2 216.2,528.5 212.1,491.3 212.1,451.6 212.1,382.2 226.3,321.3 254.6,269 291,207.2 348,176.3 425.4,176.3 h 12.2 13.5 c 7.6,0 17.7,1.6 30.2,4.8 45.7,8.6 82.6,34.3 110.8,76.9 3.6,4.5 7.5,10.9 11.7,19.1 4.3,8.2 7.7,15.9 10.4,23.1 6.8,15.1 13,33.5 18.9,54.8 z"
   class="st0" />
	<path
   style="fill:#ffffff;fill-opacity:1"
   id="path10"
   d="m 811.9,723 c 0,13 -4.1,24.9 -12.2,35.7 l -6.8,8.8 -10.2,9.4 -9.5,6.7 -6.8,4.7 -6.8,4.7 -8.8,6.7 c -5.4,3.1 -9.7,7 -12.9,11.4 l -4.7,4 h 78.5 v 32.7 H 690.9 v -6.1 c 0,-22 11.1,-42.4 33.3,-61.3 l 19.3,-14.1 12,-10.1 9.3,-8.8 c 6.7,-7.6 10,-16.2 10,-25.6 0,-17.1 -7.6,-25.6 -22.7,-25.6 -8.6,0 -14.9,3.8 -18.8,11.4 l -4.4,10.1 v 13.4 H 690.7 V 725 c 0,-8.2 1.3,-15.7 4.1,-22.5 0.9,-3.6 2.2,-6.9 4.1,-9.9 1.8,-2.9 4.5,-6.7 8.1,-11.2 10.4,-10.4 24.8,-15.7 43.3,-15.7 28.4,0 47.1,10.8 56.1,32.3 1.8,4.9 3.1,9.1 4,12.5 1.1,3.4 1.5,7.6 1.5,12.5 z"
   class="st0" />
</g>
</svg>